<svg width="46" height="20" viewBox="0 0 46 20" fill="none" xmlns="http://www.w3.org/2000/svg">
<path d="M2 8.75C1.30964 8.75 0.75 9.30964 0.75 10C0.75 10.6904 1.30964 11.25 2 11.25L2 8.75ZM44.8839 10.8839C45.372 10.3957 45.372 9.60427 44.8839 9.11611L36.9289 1.16116C36.4408 0.673007 35.6493 0.673007 35.1612 1.16116C34.673 1.64932 34.673 2.44077 35.1612 2.92893L42.2322 10L35.1612 17.0711C34.673 17.5592 34.673 18.3507 35.1612 18.8388C35.6493 19.327 36.4408 19.327 36.9289 18.8388L44.8839 10.8839ZM2 11.25L44 11.25L44 8.75L2 8.75L2 11.25Z" fill="white"/>
</svg>
