<svg width="992" height="651" viewBox="0 0 992 651" fill="none" xmlns="http://www.w3.org/2000/svg">
<g clip-path="url(#clip0_83_5)">
<path d="M987 0.38916H2V651.612H987V0.38916Z" fill="#BDDDFC"/>
<path d="M987 452.499H2V651.611H987V452.499Z" fill="#8EBBE8"/>
<path d="M987 458.989H2V477.288H987V458.989Z" fill="#74AEE8"/>
<path d="M987 489.125H2V507.424H987V489.125Z" fill="#74AEE8"/>
<path d="M987 519.262H2V537.561H987V519.262Z" fill="#74AEE8"/>
<path d="M987 549.398H2V567.697H987V549.398Z" fill="#74AEE8"/>
<path d="M987 579.535H2V597.834H987V579.535Z" fill="#74AEE8"/>
<path d="M987 609.672H2V627.971H987V609.672Z" fill="#74AEE8"/>
<path d="M75.745 316.944C71.6238 299.766 58.5713 301.14 58.5713 301.14H2V377.681H88.3139C86.4086 367.927 79.2956 331.742 75.745 316.944Z" fill="#3A73AD"/>
<path d="M88.7974 380.161C88.7974 380.161 88.6207 379.251 88.3139 377.682H2V399.316H132.472L88.7974 380.161Z" fill="#305F8F"/>
<path d="M2 399.315V403.18H133.45V399.744L132.472 399.315H2Z" fill="#1B3652"/>
<path d="M282.222 398.959L231.437 378.836C231.437 378.836 231.356 378.425 231.211 377.682H90.2568L90.3673 378.345L136.77 398.942L136.803 399.315H282.222V398.959Z" fill="#305F8F"/>
<path d="M136.803 399.315L137.143 403.18H282.222V399.315H136.803Z" fill="#1B3652"/>
<path d="M217.452 317.975C211.809 300.06 192.673 303.251 192.673 303.251H72.7021L69.0215 303.032C69.0215 303.032 70.2484 303.989 72.7021 305.952C75.1559 307.915 80.3077 317.731 80.3077 317.731L90.2565 377.683H231.211C229.846 370.749 222.55 334.156 217.452 317.975Z" fill="#3A73AD"/>
<path d="M228.209 362.899L294.515 374.332C300.549 375.372 304.957 380.607 304.957 386.732C304.957 393.682 299.325 399.316 292.377 399.316H282.221V402.163C282.221 402.163 288.492 405.174 291.325 424.122C294.157 443.069 294.866 462.372 294.866 462.372" stroke="#1B3652" stroke-width="4" stroke-miterlimit="10" stroke-linecap="round" stroke-linejoin="round"/>
<path d="M119.944 371.521C119.944 371.521 122.204 390.226 130.252 396.048C138.299 401.869 157.702 403.178 157.702 403.178L178.94 470.061C178.94 470.061 185.55 471.185 191.702 470.061C197.855 468.936 199.916 466.127 199.916 466.127C199.916 466.127 186.588 402.942 185.667 399.315C184.745 395.688 183.996 391.754 183.996 391.754L224.451 391.192L258.912 465.752C258.912 465.752 267.715 467.626 272.585 466.69C277.455 465.752 278.203 463.879 278.203 463.879C278.203 463.879 252.17 387.812 249.736 381.728C247.301 375.643 239.247 372.646 232.879 370.023C226.511 367.401 191.703 364.536 191.703 364.536L119.944 371.521Z" fill="#4D9AE8"/>
<path d="M137.515 263.147C137.515 262.907 143.836 286.441 143.836 286.441L136.073 293.805C136.073 293.805 143.915 300.128 154.158 298.848C164.401 297.567 166.962 291.483 166.962 291.483L160.4 286.441L154.558 269.792C154.558 269.792 159.359 268.667 160 263.146C160.641 257.625 158 246.338 155.118 242.897C152.237 239.455 143.115 236.813 138.474 243.377C133.833 249.941 135.433 254.664 135.433 254.664C135.433 254.664 131.592 256.344 132.792 259.306C133.994 262.266 137.515 263.147 137.515 263.147Z" fill="#AD748C"/>
<path d="M149.762 250.523L153.359 257.657L150.279 256.953L149.762 250.523Z" fill="#854761"/>
<path d="M145.309 259.601C146.861 259.601 148.119 258.343 148.119 256.791C148.119 255.238 146.861 253.98 145.309 253.98C143.757 253.98 142.499 255.238 142.499 256.791C142.499 258.343 143.757 259.601 145.309 259.601Z" fill="#A65D7C"/>
<path d="M158.274 254.089C158.274 255.641 157.016 256.898 155.464 256.898C153.912 256.898 152.654 255.64 152.654 254.089C152.654 252.537 153.912 251.278 155.464 251.278C157.017 251.28 158.274 252.537 158.274 254.089Z" fill="#A65D7C"/>
<path d="M147.623 251.484C147.623 253.723 145.809 255.537 143.571 255.537C141.333 255.537 139.519 253.723 139.519 251.484C139.519 249.245 141.333 247.431 143.571 247.431C145.809 247.431 147.623 249.245 147.623 251.484Z" fill="white" stroke="#2F2452" stroke-width="0.5" stroke-miterlimit="10"/>
<path d="M158.997 248.825C158.997 251.064 157.183 252.879 154.945 252.879C152.707 252.879 150.893 251.064 150.893 248.825C150.893 246.587 152.707 244.772 154.945 244.772C157.183 244.772 158.997 246.587 158.997 248.825Z" fill="white" stroke="#2F2452" stroke-width="0.5" stroke-miterlimit="10"/>
<path d="M147.623 250.874L150.892 250.002" stroke="#2F2452" stroke-width="0.5" stroke-miterlimit="10"/>
<path d="M146.039 251.28C146.039 251.683 145.711 252.011 145.309 252.011C144.904 252.011 144.578 251.683 144.578 251.28C144.578 250.876 144.906 250.549 145.309 250.549C145.711 250.548 146.039 250.876 146.039 251.28Z" fill="#522C24"/>
<path d="M153.136 250.287C153.539 250.287 153.866 249.96 153.866 249.556C153.866 249.153 153.539 248.826 153.136 248.826C152.732 248.826 152.405 249.153 152.405 249.556C152.405 249.96 152.732 250.287 153.136 250.287Z" fill="#522C24"/>
<path d="M134.268 255.361C134.268 255.361 134.988 254.766 137.166 254.464C139.344 254.161 141.521 252.862 141.945 250.002C142.369 247.142 142.319 246.114 145.308 245.085C148.298 244.057 149.258 241.031 149.258 241.031C149.258 241.031 150.423 244.538 153.359 244.772C156.294 245.005 158.231 246.349 158.521 248.196C158.811 250.044 158.028 251.206 158.521 252.01C159.013 252.815 159.112 253.257 159.112 253.257C159.112 253.257 162.634 252.952 162.453 247.93C162.272 242.908 156.524 242.968 154.348 240.366C152.169 237.765 151.565 235.888 148.782 235.737C146 235.586 142.37 237.886 138.438 238.732C134.507 239.58 132.632 241.636 132.087 243.573C131.543 245.51 131.483 245.267 131.483 245.267C131.483 245.267 126.643 246.652 127.49 252.01C128.338 257.369 131.103 258.035 132.563 258.096C132.56 258.094 132.642 256.016 134.268 255.361Z" fill="#522C24"/>
<path d="M136.321 254.61L142.499 261.119L143.091 260.468L137.166 254.463L136.321 254.61Z" fill="white"/>
<path d="M142.499 261.77C142.499 261.77 142.466 258.448 148.117 255.843C153.768 253.238 159.656 256.185 159.656 256.185C159.656 256.185 163.014 266.299 156.699 269.18C150.384 272.059 147.685 270.692 146.039 269.715C144.394 268.739 143.092 267.175 143.092 267.175C143.092 267.175 141.906 263.072 142.499 261.77Z" fill="white"/>
<path d="M138.079 262.839L143.571 266.785V267.436L137.515 263.147L138.079 262.839Z" fill="white"/>
<path d="M140.746 265.436L143.092 267.176C143.092 267.176 146.557 270.862 150.445 270.625C154.334 270.39 154.639 270.019 154.639 270.019L155.777 273.262C155.777 273.262 151.034 276.794 146.359 273.769C141.686 270.742 140.746 265.436 140.746 265.436Z" fill="#854761"/>
<path d="M136.075 293.804C136.075 293.804 120.962 299.986 116.701 311.599C112.439 323.212 111.116 340.356 111.116 340.356C111.116 340.356 118.171 343.792 125.666 343.792C133.161 343.792 134.042 343.792 134.042 343.792L134.923 377.682C134.923 377.682 165.051 383.042 176.954 381.424C188.858 379.807 194.883 375.398 194.883 375.398L192.385 332.621L204.288 324.536C204.288 324.536 200.614 310.044 189.739 303.251C178.863 296.459 166.962 291.484 166.962 291.484C166.962 291.484 162.961 297.461 151.441 297.255C139.92 297.047 136.075 293.804 136.075 293.804Z" fill="#DE6F94"/>
<path d="M128.052 307.026C128.052 307.026 132.319 306.315 134.571 316.037C136.823 325.758 136.23 342.475 136.23 342.475L134.042 343.792L137.771 341.882L136.822 317.222" stroke="#944A63" stroke-width="0.5" stroke-miterlimit="10"/>
<path d="M180.558 303.352C180.558 303.352 188.144 310.821 190.04 319.594C191.936 328.367 192.434 333.47 192.434 333.47" stroke="#944A63" stroke-width="0.5" stroke-miterlimit="10"/>
<path d="M114.602 341.75C114.602 341.75 111.198 368.329 116.035 373.622C120.874 378.915 134.859 377.932 140.681 378.008C146.502 378.083 170.088 378.083 171.298 378.462C172.508 378.84 176.439 378.84 178.102 380.126C179.765 381.411 184.073 387.612 184.679 387.309C185.283 387.006 185.889 380.126 185.586 378.915C185.283 377.705 183.998 375.815 183.168 374.907C182.336 374 172.583 368.177 166.385 366.06C160.186 363.942 135.012 355.775 135.012 355.775L135.672 342.956L114.602 341.75Z" fill="#AD748C"/>
<path d="M114.602 341.75L114.059 346.938L135.672 342.957L114.602 341.75Z" fill="#854761"/>
<path d="M203.01 325.403C203.01 325.403 218.509 369.69 218.198 371.093C217.886 372.496 199.341 380.982 197.937 381.727C196.535 382.472 191.704 387.32 191.704 387.32C191.704 387.32 191.86 377.641 193.418 374.367C194.977 371.093 199.497 364.535 199.497 364.535L193.459 350.982L192.386 332.621L203.01 325.403Z" fill="#AD748C"/>
<path d="M203.009 325.403L192.434 341.75L192.385 332.62L203.009 325.403Z" fill="#854761"/>
<path d="M174.483 456.025C174.483 456.025 185.36 457.803 190.768 456.025C196.176 454.247 196.529 453.542 196.529 453.542C196.529 453.542 192.415 459.069 188.417 460.127" stroke="#426180" stroke-width="0.5" stroke-miterlimit="10" stroke-linecap="round" stroke-linejoin="round"/>
<path d="M157.702 403.18L162.46 394.97L158.087 403.182L166.45 399.345" stroke="#426180" stroke-width="0.5" stroke-miterlimit="10" stroke-linecap="round" stroke-linejoin="round"/>
<path d="M136.373 378.031C136.373 378.031 136.296 384.917 133.841 389.138C131.386 393.36 130.081 394.203 130.081 394.203" stroke="#426180" stroke-width="0.5" stroke-miterlimit="10" stroke-linecap="round" stroke-linejoin="round"/>
<path d="M223.144 391.211L233.951 381.727L225.341 393.118L237.041 387.32" stroke="#426180" stroke-width="0.5" stroke-miterlimit="10" stroke-linecap="round" stroke-linejoin="round"/>
<path d="M254.79 456.835C254.79 456.835 262.641 456.957 268.158 456.835C273.675 456.712 275.351 455.557 275.351 455.557" stroke="#426180" stroke-width="0.5" stroke-miterlimit="10" stroke-linecap="round" stroke-linejoin="round"/>
<path d="M261.658 466.249L264.096 473.914L267.083 475.096C267.083 475.096 267.291 474.053 268.68 474.331C270.07 474.61 276.043 478.291 279.864 479.681C283.683 481.07 293.687 481.349 293.687 481.349C293.687 481.349 293.826 478.64 290.769 475.721C287.712 472.803 275.802 465.73 275.802 465.73C275.802 465.73 271.043 466.759 267.847 466.689C264.653 466.618 261.658 466.249 261.658 466.249Z" fill="#BF5E87"/>
<path d="M194.908 469.221C194.908 469.221 200.552 474.519 205.261 480.553C209.969 486.587 210.705 489.972 210.705 489.972C210.705 489.972 206.438 489.972 200.553 487.911C194.668 485.851 189.371 481.348 189.371 481.348L188.635 482.172L184.075 479.596L182.897 470.56C182.897 470.56 189.475 470.607 191.704 470.061C193.932 469.515 194.908 469.221 194.908 469.221Z" fill="#BF5E87"/>
<path d="M288.006 473.538C288.006 473.538 284.209 473.042 281.847 475.434C279.484 477.826 279.863 479.68 279.863 479.68C279.863 479.68 284.182 481.347 288.934 481.347C293.685 481.347 293.685 481.347 293.685 481.347C293.685 481.347 294.302 477.718 288.006 473.538Z" fill="white"/>
<path d="M204.5 479.596C204.5 479.596 201.66 478.961 198.511 481.347C195.362 483.734 195.513 485.567 195.513 485.567C195.513 485.567 200.743 489.12 205.992 489.972C211.241 490.823 211.373 489.972 211.373 489.972C211.373 489.972 207.57 481.75 205.073 479.52" fill="white"/>
<path d="M86.1914 362.899L152.498 374.332C158.533 375.372 162.941 380.607 162.941 386.732C162.941 393.682 157.308 399.316 150.361 399.316H140.205V402.163C140.205 402.163 146.476 405.174 149.308 424.122C152.141 443.069 152.848 462.372 152.848 462.372" stroke="#1B3652" stroke-width="4" stroke-miterlimit="10" stroke-linecap="round" stroke-linejoin="round"/>
<path d="M540.315 94.0014C542.601 79.6464 532.82 66.1557 518.469 63.869C504.117 61.5824 490.63 71.3658 488.344 85.7208C486.058 100.076 495.839 113.567 510.19 115.853C524.541 118.14 538.029 108.356 540.315 94.0014Z" fill="white" stroke="#2F2452" stroke-miterlimit="10"/>
<path opacity="0.51" d="M986.636 193.34H857.7V371.085H986.636V193.34Z" fill="#7FA9D4"/>
<path opacity="0.51" d="M987.036 201.387H864.796V262.877H987.036V201.387Z" fill="#7094BA"/>
<path opacity="0.51" d="M987.036 270.867H864.796V332.357H987.036V270.867Z" fill="#7094BA"/>
<path d="M882.461 210.346H871.513V262.877H882.461V210.346Z" fill="#BF5E87"/>
<path d="M883.504 210.346H880.896V262.877H883.504V210.346Z" fill="#964A6A"/>
<path d="M896.19 210.346H885.241V262.877H896.19V210.346Z" fill="#9D5EBF"/>
<path d="M897.233 210.346H894.626V262.877H897.233V210.346Z" fill="#7C4A96"/>
<path d="M910.44 210.346H899.492V262.877H910.44V210.346Z" fill="#9D5EBF"/>
<path d="M911.484 210.346H908.877V262.877H911.484V210.346Z" fill="#7C4A96"/>
<path d="M924.69 210.346H913.742V262.877H924.69V210.346Z" fill="#5E69BF"/>
<path d="M925.734 210.346H923.127V262.877H925.734V210.346Z" fill="#4A5296"/>
<path d="M938.941 210.346H927.993V262.877H938.941V210.346Z" fill="#9D5EBF"/>
<path d="M939.985 210.346H937.378V262.877H939.985V210.346Z" fill="#7C4A96"/>
<path d="M966.62 279.112H955.672V331.644H966.62V279.112Z" fill="#9D5EBF"/>
<path d="M967.663 279.112H965.056V331.644H967.663V279.112Z" fill="#7C4A96"/>
<path d="M980.134 279.112H969.186V331.644H980.134V279.112Z" fill="#9D5EBF"/>
<path d="M981.177 279.112H978.57V331.644H981.177V279.112Z" fill="#7C4A96"/>
<path d="M986.955 279.113H982.701V331.644H986.955V279.113Z" fill="#9D5EBF"/>
<path d="M952.484 209.008L941.632 210.461L948.601 262.531L959.453 261.078L952.484 209.008Z" fill="#5E61BF"/>
<path d="M953.52 208.865L950.936 209.211L957.905 261.28L960.489 260.934L953.52 208.865Z" fill="#4A4C96"/>
<path d="M800.291 266.215C800.291 266.215 781.492 269.345 771.129 281.146C760.765 292.948 722.183 344.568 722.183 344.568H870.775C870.775 344.568 868.862 308.098 867.427 297.732C865.992 287.366 857.542 276.841 857.542 276.841C857.542 276.841 826.208 266.276 825.772 266.216C825.337 266.155 800.291 266.215 800.291 266.215Z" fill="#4D9AE8"/>
<path d="M599.707 319.55H538.34C538.34 319.55 538.433 324.442 540.146 330.08H598.05C598.91 327.131 599.529 323.651 599.707 319.55Z" fill="#4D9AE8"/>
<path d="M541.013 332.57C542.785 337.184 545.724 341.889 550.646 344.568H588.242C588.242 344.568 593.818 341.588 597.208 332.57H541.013Z" fill="#4D9AE8"/>
<path d="M598.05 330.078H540.146C540.395 330.897 540.692 331.732 541.013 332.569H597.209C597.507 331.781 597.793 330.962 598.05 330.078Z" fill="#3A73AD"/>
<path d="M552.956 319.55C552.956 319.55 534.699 311.763 536.704 300.999C538.708 290.235 549.171 295.357 555.108 303.968C561.045 312.579 568.169 305.378 562.827 298.029C557.484 290.681 545.386 285.633 546.054 273.014C546.723 260.394 553.03 257.351 557.928 262.918C562.827 268.486 560.303 282.069 567.724 284C575.145 285.93 568.762 275.315 567.575 269.08C566.388 262.844 565.497 255.198 570.84 256.609C576.183 258.019 571.582 275.166 577.149 272.421C582.715 269.674 578.559 259.43 585.46 256.907C592.361 254.383 598.522 254.754 593.771 261.36C589.022 267.967 581.378 271.827 580.191 278.953C579.005 286.08 581.972 292.761 586.648 285.56C591.323 278.359 596.147 272.793 602.604 274.499C609.06 276.206 608.244 284.669 597.037 288.233C585.832 291.796 577.075 292.983 577.223 299.515C577.371 306.048 581.081 303.301 588.428 298.253C595.775 293.205 605.497 296.843 598.299 302.855C591.101 308.868 581.973 306.344 581.379 310.576C580.785 314.807 582.047 315.104 586.574 314.881C591.101 314.659 592.437 319.551 592.437 319.551H552.956V319.55Z" fill="#32875C"/>
<path d="M766.196 326.913H649.374L619.962 250.631H736.785L766.196 326.913Z" fill="#3A73AD"/>
<path d="M766.196 326.913H762.024L732.613 250.631H736.785L766.196 326.913Z" fill="#2D5A87"/>
<path d="M696.419 290.594C696.419 293.763 693.85 296.333 690.681 296.333C687.513 296.333 684.943 293.763 684.943 290.594C684.943 287.424 687.513 284.854 690.681 284.854C693.851 284.854 696.419 287.424 696.419 290.594Z" fill="#2D5A87"/>
<path d="M695.868 326.913L700.723 340.594L697.303 342.471L695.205 344.568H723.123L721.8 341.699L713.634 338.718L709.165 326.913H695.868Z" fill="#2D5A87"/>
<path d="M707.013 326.913L711.647 340.153L720.255 342.801L721.137 344.568H723.123L721.8 341.699L713.634 338.718L709.165 326.913H707.013Z" fill="#1D3A57"/>
<path d="M804.068 196.068C803.681 196.068 789.055 196.164 786.633 207.5C784.212 218.836 783.631 237.535 789.927 245.19C796.222 252.844 806.393 245.577 806.393 245.577L802.326 264.858L800.292 266.213C800.292 266.213 801.26 274.934 808.622 275.321C815.984 275.709 825.961 265.439 825.961 265.439L822.28 263.792L824.799 227.168C824.799 227.168 829.642 205.949 817.825 200.523C806.006 195.1 804.068 196.068 804.068 196.068Z" fill="#FFB0D1"/>
<path d="M787.722 204.541C787.722 204.541 787.25 209.598 796.841 211.677C806.433 213.756 806.833 213.357 809.87 216.314C812.908 219.273 813.307 219.832 813.307 219.832C813.307 219.832 814.666 215.355 819.381 217.273C824.098 219.192 822.979 225.268 820.181 227.428C817.382 229.587 816.344 229.666 816.344 229.666C816.344 229.666 816.604 235.584 820.181 238.941C823.757 242.297 829.853 241.499 829.853 241.499C829.853 241.499 821.297 261.581 820.121 275.333C818.943 289.084 818.503 303.359 832.039 306.598C845.575 309.835 847.488 298.651 852.048 294.824C856.61 290.998 864.995 288.201 865.731 281.578C866.466 274.956 865.142 267.892 856.315 260.532C847.488 253.174 840.425 247.14 837.923 243.019C835.422 238.898 832.185 236.69 832.185 236.69C832.185 236.69 835.57 223.74 834.099 215.204C832.627 206.668 821.225 192.098 805.445 193.422C789.665 194.747 785.987 201.958 785.692 204.019C785.398 206.079 786.494 208.183 786.494 208.183L787.722 204.541Z" fill="#1D3A57"/>
<path d="M795.336 217.599L791.788 229.99L795.812 227.449L795.336 217.599Z" fill="#BF5E87"/>
<path d="M792.106 223.794C792.106 225.257 790.921 226.442 789.459 226.442C787.997 226.442 786.812 225.257 786.812 223.794C786.812 222.332 787.997 221.146 789.459 221.146C790.921 221.146 792.106 222.332 792.106 223.794Z" fill="#E08DB0"/>
<path d="M803.489 223.794C803.489 225.257 802.304 226.442 800.842 226.442C799.38 226.442 798.194 225.257 798.194 223.794C798.194 222.332 799.38 221.146 800.842 221.146C802.304 221.146 803.489 222.332 803.489 223.794Z" fill="#E08DB0"/>
<path d="M798.406 218.074C798.406 217.489 798.881 217.015 799.465 217.015C800.05 217.015 800.525 217.489 800.525 218.074C800.525 218.659 800.05 219.134 799.465 219.134C798.881 219.134 798.406 218.659 798.406 218.074Z" fill="#1D3A57"/>
<path d="M788.981 218.074C788.981 217.489 789.456 217.015 790.041 217.015C790.626 217.015 791.1 217.489 791.1 218.074C791.1 218.659 790.626 219.134 790.041 219.134C789.456 219.134 788.981 218.659 788.981 218.074Z" fill="#1D3A57"/>
<path d="M792.107 211.591C792.107 211.591 790.854 211.249 789.688 211.706C788.521 212.161 787.867 213.043 787.867 213.043C787.867 213.043 790.039 212.352 791.101 212.256C792.163 212.159 792.192 211.989 792.107 211.591Z" fill="#1D3A57"/>
<path d="M763.954 344.568H870.775C870.775 344.568 869.022 331.701 859.297 324.365C849.571 317.029 832.192 323.408 818.481 329.627C804.77 335.847 791.537 340.153 790.74 339.994C789.943 339.834 784.841 336.325 776.71 339.197C768.577 342.066 763.954 344.568 763.954 344.568Z" fill="#FFB0D1"/>
<path d="M790.739 339.993C790.739 339.993 796 339.246 798.711 341.907C801.422 344.568 802.379 344.568 802.379 344.568H807.322C807.322 344.568 803.429 339.993 801.263 338.717C799.096 337.441 798.236 337.743 798.236 337.743L790.739 339.993Z" fill="#1D3A57"/>
<path d="M785.209 230.541C785.209 230.541 787.602 226.442 794.222 226.442C800.841 226.442 804.511 229.558 805.889 231.18C807.267 232.801 808.887 241.067 808.401 243.093C807.915 245.119 803.463 248.847 798.194 249.495C792.925 250.144 786.081 244.814 785.209 230.541Z" fill="white"/>
<path d="M806.394 245.578L814.803 232.153C814.803 232.153 810.671 245.201 809.05 248.038C807.43 250.875 805.01 252.14 805.01 252.14L806.394 245.578Z" fill="#E08DB0"/>
<path d="M803.488 231.179L812.587 219.036L813.306 219.833L805.009 231.828" fill="white"/>
<path d="M806.394 245.578L816.344 229.667H815.774L807.59 241.311L806.394 245.578Z" fill="white"/>
<path d="M800.29 266.214L797.27 266.868C797.27 266.868 792.419 287.085 792.95 291.545C793.481 296.006 797.515 293.988 802.294 291.438C807.073 288.889 820.118 275.331 820.118 275.331L820.881 269.896C820.881 269.896 814.151 276.461 808.488 274.018C802.827 271.577 800.29 266.214 800.29 266.214Z" fill="white"/>
<path d="M864.796 314.614C864.796 314.614 862.934 313.371 853.495 313.62C844.057 313.869 829.775 323.682 829.775 323.682C829.775 323.682 836.855 315.36 842.94 312.502C849.025 309.645 852.502 308.775 852.502 308.775" stroke="#3B76B3" stroke-width="0.75" stroke-miterlimit="10" stroke-linecap="round" stroke-linejoin="round"/>
<path d="M778.462 282.144C778.462 282.144 770.679 292.924 769.182 299.214C767.684 305.502 767.684 321.081 767.684 321.081L766.196 296.333" stroke="#3B76B3" stroke-width="0.75" stroke-miterlimit="10" stroke-linecap="round" stroke-linejoin="round"/>
<path d="M986.999 368.016H514.336V516.67H986.999V368.016Z" fill="#D9ECFF"/>
<path d="M986.999 411.864H514.336V418.847H986.999V411.864Z" fill="#8EBBE8"/>
<path d="M986.999 474.25H514.336V481.234H986.999V474.25Z" fill="#7EA6CF"/>
<path d="M986.999 513.178H514.336V520.161H986.999V513.178Z" fill="#7093B8"/>
<path d="M986.999 358.3H511.401V368.016H986.999V358.3Z" fill="#3A8D9C"/>
<path d="M987 344.568H507.504V348.584H987V344.568Z" fill="#3A8D9C"/>
<path d="M987 358.3H511.402L507.504 348.583H987V358.3Z" fill="#2E717D"/>
<path d="M668.294 0.38916H665.669V85.8746H668.294V0.38916Z" fill="white"/>
<path d="M786.24 0.38916H783.615V85.8746H786.24V0.38916Z" fill="white"/>
<path d="M859.975 110.387H590.398C590.398 96.8491 601.37 85.8745 614.906 85.8745H835.468C849.002 85.8745 859.975 96.8491 859.975 110.387Z" fill="white"/>
<path d="M191.593 0.38916H188.968V85.8746H191.593V0.38916Z" fill="white"/>
<path d="M309.539 0.38916H306.914V85.8746H309.539V0.38916Z" fill="white"/>
<path d="M383.272 110.387H113.695C113.695 96.8491 124.667 85.8745 138.203 85.8745H358.766C372.3 85.8745 383.272 96.8491 383.272 110.387Z" fill="white"/>
<path d="M457.475 184.218C457.475 184.218 442.839 181.174 439.113 187.008C435.387 192.841 438.465 197.703 438.465 197.703C438.465 197.703 425.991 198.37 417.568 216.752C409.143 235.134 387.274 277.102 385.169 300.112C383.063 323.122 385.655 326.241 392.782 331.325C399.909 336.409 400.72 335.599 400.72 335.599C400.72 335.599 399.911 345.808 400.883 347.591C401.855 349.373 401.855 349.373 401.855 349.373C401.855 349.373 401.206 356.86 402.017 358.301C402.827 359.743 431.501 363.633 446.567 362.013C461.632 360.392 469.894 356.99 469.894 356.99V347.753C469.894 347.753 471.676 345.808 472.486 343.216C473.296 340.624 473.944 329.119 473.944 329.119C473.944 329.119 491.926 343.818 508.287 344.571C524.649 345.323 544.413 344.571 544.413 344.571H549.272L550.891 332.573L540.145 327.662C540.145 327.662 540.203 325.231 538.338 324.097C536.473 322.962 510.041 306.602 508.495 307.263C506.95 307.925 508.055 303.952 507.502 303.952C506.95 303.952 494.371 245.231 491.943 238.167C489.515 231.103 485.835 220.286 485.835 220.286L477.948 206.82C477.948 206.82 480.229 205.053 478.693 199.977C477.157 194.9 457.475 184.218 457.475 184.218Z" fill="#BF5E87"/>
<path d="M475.613 125.504C475.613 125.504 483.082 128.482 489.695 141.442C496.307 154.402 500.761 173.174 500.761 173.174L490.914 177.852L488.335 170.522L489.274 177.852L475.613 180.901L472.099 129.149L475.613 125.504Z" fill="#522C24"/>
<path d="M458.411 150.182C458.411 150.182 454.766 146.117 450.351 150.533C445.937 154.949 448.459 160.696 453.225 161.888C457.99 163.08 459.532 160.907 459.532 160.907C459.532 160.907 460.443 173.804 458.762 179.973C457.08 186.141 454.136 193.36 454.136 193.36C454.136 193.36 460.933 205.977 465.628 211.093C470.322 216.21 473.687 217.822 474.528 216.07C475.368 214.317 473.056 199.457 473.056 199.457L479.013 172.331C479.013 172.331 489.103 170.438 489.663 161.887C490.224 153.336 482.866 135.462 479.292 130.766C475.718 126.071 472.495 121.444 463.386 125.019C454.276 128.594 452.244 136.935 453.785 141.56C455.328 146.187 458.411 150.182 458.411 150.182Z" fill="#FFB0D1"/>
<path d="M470.757 156.171C470.757 156.171 467.714 161.606 467.496 165.249C467.279 168.89 467.17 170.522 467.17 170.522C467.17 170.522 472.009 174.134 478.881 172.927C485.754 171.718 488.796 167.848 489.693 164.673C490.59 161.498 488.797 151.699 488.253 150.845C487.71 149.991 487.636 149.743 487.636 149.743C487.636 149.743 482.547 148.4 477.983 150.9C473.42 153.399 470.757 156.171 470.757 156.171Z" fill="white"/>
<path d="M474.918 141.44L480.983 149.76L478.275 150.747L474.918 141.44Z" fill="#BF5E87"/>
<path d="M472.799 150.747C472.799 152.488 471.389 153.899 469.65 153.899C467.91 153.899 466.5 152.488 466.5 150.747C466.5 149.007 467.91 147.596 469.65 147.596C471.389 147.597 472.799 149.008 472.799 150.747Z" fill="#E08DB0"/>
<path d="M468.878 145.377C469.493 145.377 469.991 144.879 469.991 144.264C469.991 143.65 469.493 143.151 468.878 143.151C468.264 143.151 467.766 143.65 467.766 144.264C467.766 144.879 468.264 145.377 468.878 145.377Z" fill="#1D3A57"/>
<path d="M480.919 140.762C480.919 141.377 480.422 141.875 479.807 141.875C479.192 141.875 478.694 141.377 478.694 140.762C478.694 140.147 479.192 139.649 479.807 139.649C480.422 139.651 480.919 140.149 480.919 140.762Z" fill="#1D3A57"/>
<path d="M482.685 148.779C484.425 148.779 485.836 147.368 485.836 145.628C485.836 143.887 484.425 142.477 482.685 142.477C480.946 142.477 479.535 143.887 479.535 145.628C479.535 147.368 480.946 148.779 482.685 148.779Z" fill="#E08DB0"/>
<path d="M469.65 135.662C469.65 135.662 468.652 135.156 467.17 135.865C465.688 136.573 464.475 138.547 464.475 138.547L469.65 135.662Z" fill="#522C24"/>
<path d="M480.108 133.486C479.855 133.486 477.679 132.473 476.77 132.879C475.858 133.283 476.061 134.144 476.061 134.144L480.108 133.486Z" fill="#522C24"/>
<path d="M459.172 149.161L469.65 158.562L470.168 157.294L459.572 148.779L459.172 149.161Z" fill="white"/>
<path d="M459.674 163.611L467.766 168.911L467.171 170.522L459.473 164.111L459.674 163.611Z" fill="white"/>
<path d="M458.177 149.866C458.177 149.866 460.477 149.752 461.719 146.381C462.96 143.01 461.719 136.75 466.212 133.463C470.706 130.175 474.221 127.75 474.917 126.627C475.612 125.504 475.612 125.504 475.612 125.504C475.612 125.504 472.242 119.53 460.831 122.665C449.42 125.799 442.975 132.069 439.664 140.762C436.352 149.455 433.278 173.172 433.278 173.172L449.833 181.096L452.612 171.692L452.494 181.096C452.494 181.096 458.879 182.042 461.481 181.746C464.083 181.451 465.62 181.096 465.62 181.096L459.945 160.396C459.945 160.396 453.441 163.703 450.248 158.56C447.056 153.419 451.302 146.55 458.177 149.866Z" fill="#522C24"/>
<path d="M471.101 305.408L463.367 326.913C463.367 326.913 477.517 326.482 479.214 324.815C480.913 323.147 481.478 322.391 481.478 322.391L483.742 308.615L471.101 305.408Z" fill="#9C4D6E"/>
<path d="M540.146 327.659L538.34 344.568H549.273L550.385 332.338L540.583 327.659" fill="#9C4D6E"/>
<path d="M448.062 195.532C448.062 195.532 452.178 205.377 457.346 210.424C462.513 215.469 467.17 218.3 467.17 218.3" stroke="#69344A" stroke-width="0.5" stroke-miterlimit="10" stroke-linecap="round" stroke-linejoin="round"/>
<path d="M441.475 197.5C441.475 197.5 446.149 208.7 453.162 213.007C460.175 217.314 464.482 218.299 464.482 218.299" stroke="#69344A" stroke-width="0.5" stroke-miterlimit="10" stroke-linecap="round" stroke-linejoin="round"/>
<path d="M430.96 210.202C430.96 210.202 440.524 208.877 443.171 223.447C445.82 238.018 427.133 290.851 427.133 290.851L397.119 301.889L427.28 292.176L415.657 302.625" stroke="#69344A" stroke-width="0.5" stroke-miterlimit="10" stroke-linecap="round" stroke-linejoin="round"/>
<path d="M427.28 292.176L471.102 305.408" stroke="#69344A" stroke-width="0.5" stroke-miterlimit="10" stroke-linecap="round" stroke-linejoin="round"/>
<path d="M488.398 227.8C488.398 227.8 491.201 240.242 488.398 255.46C485.596 270.678 473.555 305.379 473.555 305.379" stroke="#69344A" stroke-width="0.5" stroke-miterlimit="10" stroke-linecap="round" stroke-linejoin="round"/>
<path d="M550.385 334.811C550.385 334.811 562.259 339.134 563.614 339.982C564.971 340.83 572.43 342.525 573.615 343.203C574.802 343.882 575.141 344.814 575.141 344.814L549.272 344.568L550.385 334.811Z" fill="#FFB0D1"/>
<path d="M465.286 168.951C465.286 168.951 468.852 172.088 472.799 172.622C476.748 173.157 479.199 172.866 479.199 172.866L476.653 183.081C476.653 183.081 467.225 175.445 465.286 168.709" fill="#E08DB0"/>
<path d="M483.517 309.978C483.517 309.978 499.061 309.245 503.186 309.978C507.311 310.711 507.922 311.78 506.699 312.238C505.477 312.697 491.88 313.614 491.88 313.614C491.88 313.614 491.072 317.691 489.642 319.548C488.214 321.407 481.477 322.39 481.477 322.39L483.517 309.978Z" fill="#E08DB0"/>
<path d="M403.801 358.3L411.358 549.945H405.761L409.119 578.503L442.707 576.824L442.987 569.264L479.935 560.025V536.507L475.737 538.186L467.675 357.775C467.675 357.775 450.825 360.118 439.348 360.398C427.873 360.678 403.801 358.3 403.801 358.3Z" fill="#3A73AD"/>
<path d="M454.007 385.063L440.457 548.84L443.28 552.056L442.987 569.264L454.007 566.508V547.992L444.691 544.323L454.007 385.063Z" fill="#2D5A87"/>
<path d="M447.942 389.401L463.209 376.564L451.05 392.644L447.942 389.401Z" fill="#2D5A87"/>
<path d="M405.761 549.946H410.805L443.256 553.447L442.709 576.824L409.119 578.503L405.761 549.946Z" fill="#4B96E0"/>
<path d="M449.109 546.063L454.008 547.992V565.966L479.936 560.025V536.507L449.109 546.063Z" fill="#4B96E0"/>
<path d="M470.713 562.139C470.713 562.139 482.527 565.607 491.978 570.018C501.429 574.43 503.161 579.786 503.161 579.786C503.161 579.786 487.409 581.047 475.754 579.629C464.097 578.211 450.394 575.533 449.922 575.375C449.449 575.218 449.922 567.531 449.922 567.531L470.713 562.139Z" fill="#9D5EBF"/>
<path d="M437.312 577.094C437.312 577.094 445.984 580.102 455.751 584.04C465.516 587.979 467.091 592.075 467.091 592.075C467.091 592.075 449.905 594.124 437.312 592.706C424.72 591.288 413.221 588.61 413.221 588.61L414.011 578.259L437.312 577.094Z" fill="#9D5EBF"/>
<path d="M487.713 568.146C487.713 568.146 481.55 570.937 479.48 573.246C477.411 575.555 476.437 576.589 476.437 576.589L449.712 572.368L449.922 575.375C449.922 575.375 465.356 578.684 476.437 580.304C487.518 581.923 503.161 579.788 503.161 579.788C503.161 579.788 502.159 575.874 497.305 572.292C492.451 568.709 487.713 568.146 487.713 568.146Z" fill="#D9ECFF"/>
<path d="M449.712 581.662C449.712 581.662 443.834 582.791 441.185 585.149C438.536 587.508 438.206 588.17 438.206 588.17L413.222 585.963V588.608C413.222 588.608 428.495 593.248 443.944 593.799C459.393 594.35 467.092 592.074 467.092 592.074C467.092 592.074 466.566 589.935 462.263 586.624C457.957 583.314 449.712 581.662 449.712 581.662Z" fill="#D9ECFF"/>
<path d="M427.28 203.16C427.28 203.16 440.228 203.754 444.337 215.094C448.447 226.434 439.678 249.507 439.678 249.507C439.678 249.507 446.046 229.3 439.236 216.751C432.426 204.202 419.698 212.613 419.698 212.613L427.28 203.16Z" fill="#DEB46D"/>
<path d="M427.28 204.605C427.28 204.605 427.757 200.723 417.13 203.161C406.501 205.597 396.724 211.409 394.598 219.347C392.473 227.285 387.654 241.744 385.245 246.138C382.836 250.532 372.209 263.997 377.168 274.062C382.128 284.126 388.142 285.721 388.142 285.721C388.142 285.721 396.866 264.706 400.834 254.075C404.801 243.444 416.598 217.505 419.698 213.536C422.798 209.567 427.28 203.162 427.28 203.162" fill="#DEB46D"/>
<path d="M389.234 252.549C389.234 252.549 385.387 261.921 387.557 265.67C389.726 269.419 396.335 261.625 396.335 261.625L397.697 262.19L388.775 284.191C388.775 284.191 380.456 277.114 380.555 270.702C380.653 264.289 383.631 257.485 384.46 256.398C385.288 255.311 389.234 252.549 389.234 252.549Z" fill="#A8803D"/>
<path d="M391.798 260.54C391.798 260.54 391.601 260.342 390.516 260.54C389.43 260.738 388.641 263.302 389.825 263.894C391.009 264.485 391.996 261.822 391.798 260.54Z" fill="#A8803D"/>
<path d="M249.653 257.748C249.653 258.07 276.699 297.254 276.699 297.254L302.457 291.563L278.202 252.548L249.653 256.352V257.748Z" fill="#9C4D6E"/>
<path d="M276.054 254.656C275.724 254.656 254.081 257.55 254.081 257.55L275.403 290.881L294.582 287.022" fill="white"/>
<path d="M341.33 220.277L336.369 206.481C336.369 206.481 340.241 187.361 335.522 177.678C330.802 167.997 312.172 165.576 307.211 173.685C302.25 181.793 300.194 195.105 300.194 195.105L302.977 193.894C302.977 193.894 303.339 206.965 309.51 208.296C315.681 209.627 318.464 204.665 318.464 204.665L319.068 218.702L315.68 221.244C315.68 221.244 325.843 226.085 333.102 225.237C340.36 224.39 341.934 220.154 341.934 220.154" fill="#FFB0D1"/>
<path d="M302.978 193.895L302.826 183.983L300.194 195.104" fill="#BF5E87"/>
<path d="M303.379 197.855L306.124 196.037L303.697 199.583L303.379 197.855Z" fill="#522C24"/>
<path d="M318.464 204.666L323.173 198.65L318.732 210.876L318.464 204.666Z" fill="#E08DB0"/>
<path d="M306.562 174.809L307.212 173.685C307.212 173.685 308.586 179.441 310.212 182.695C311.839 185.949 312.246 185.868 312.246 185.868C312.246 185.868 315.906 181.394 319.322 184.322C322.739 187.251 320.868 191.563 319.322 192.622C317.777 193.68 316.801 193.923 316.801 193.923C316.801 193.923 316.719 203.036 326.237 206.372C335.754 209.708 342.586 204.848 345.433 197.066C348.279 189.286 340.39 176.593 340.39 176.593C340.39 176.593 343.969 174.803 342.424 169.189C340.879 163.576 336.405 163.249 333.395 165.446C330.385 167.643 330.629 169.921 330.629 169.921C330.629 169.921 324.366 164.958 316.721 167.074C309.075 169.189 307.143 171.142 306.564 172.687C305.984 174.233 306.339 175.225 306.339 175.225" fill="#522C24"/>
<path d="M307.442 185.812C307.442 188.962 306.237 191.516 304.752 191.516C303.266 191.516 302.062 188.962 302.062 185.812C302.062 182.663 303.266 180.109 304.752 180.109C306.237 180.109 307.442 182.663 307.442 185.812Z" fill="white" stroke="#2F2452" stroke-width="0.5" stroke-miterlimit="10"/>
<path d="M307.442 186.016L314.976 183.758" stroke="#2F2452" stroke-width="0.5" stroke-miterlimit="10" stroke-linecap="round" stroke-linejoin="round"/>
<path d="M315.681 221.245C315.681 221.245 296.367 231.618 294.621 240.659C292.877 249.701 289.07 297.605 289.07 297.605L267.504 280.949L260.685 302.624L274.48 322.349C274.48 322.349 279.523 330.28 288.181 332.183C296.84 334.086 300.488 330.439 300.488 330.439V417.268H375.864C375.864 417.268 380.05 379.386 373.283 353.441C366.514 327.495 357.981 309.652 357.981 309.652L357.098 303.029C357.098 303.029 365.338 260.681 363.867 245.374C362.396 230.068 354.156 226.332 354.156 226.332L340.628 218.327C340.628 218.327 335.914 222.914 329.555 222.497C323.198 222.082 315.681 221.245 315.681 221.245Z" fill="white"/>
<path d="M311.176 417.269L312.459 511.128L317.079 513.177C317.079 513.177 315.283 518.153 314.128 519.261C312.972 520.37 300.91 536.504 300.91 536.504C300.91 536.504 307.327 535.257 310.149 533.205C312.972 531.151 318.916 521.395 318.916 521.395V533.718L321.698 532.691V516.669L327.601 513.177L334.531 417.268H311.176V417.269Z" fill="#1C3854"/>
<path d="M341.203 417.27L342.743 510.616L348.903 513.178C348.903 513.178 344.282 523.964 342.23 527.045C340.177 530.126 337.867 533.464 337.867 533.464C337.867 533.464 344.284 534.491 347.62 530.896C350.956 527.302 354.292 520.162 354.292 520.162L354.035 531.666L357.371 530.896V515.236C357.371 515.236 363.017 513.431 364.044 513.178C365.07 512.926 365.584 417.27 365.584 417.27H341.203Z" fill="#1C3854"/>
<path d="M302.979 234.027C302.979 234.027 315.996 235.869 317.722 250.633C319.448 265.397 314.978 309.654 314.978 309.654L322.111 260.453" stroke="#5E7387" stroke-width="0.5" stroke-miterlimit="10" stroke-linecap="round" stroke-linejoin="round"/>
<path d="M304.751 227.597C304.751 227.597 307.731 222.493 315.056 225.337C322.381 228.183 334.831 240.784 343.621 239.905C352.411 239.026 352.424 228.994 350.293 224.046" stroke="#5E7387" stroke-width="2" stroke-miterlimit="10" stroke-linecap="round" stroke-linejoin="round"/>
<path d="M267.505 280.95L261.515 274.939L257.621 280.95L263.77 292.82L267.505 280.95Z" fill="#2D5A87"/>
<path d="M258.612 279.42C258.612 279.42 254.64 272.704 254.124 270.827C253.608 268.95 253.562 263.039 253.562 263.039C253.562 263.039 255.813 265.666 255.954 265.902C256.095 266.137 258.158 269.28 258.158 269.28C258.158 269.28 260.598 266.418 261.301 265.292C262.004 264.166 263.928 261.96 263.928 261.96C263.928 261.96 264.866 262.805 264.724 263.884C264.584 264.963 262.52 270.922 262.285 271.485C262.051 272.048 260.685 273.315 260.685 273.315L261.721 275.147L258.612 279.42Z" fill="#FFB0D1"/>
<path d="M258.531 255.17L256.646 255.42L257.366 254.655L256.646 250.488L267.505 248.475L270.061 251.947L271.454 252.548L272.596 253.294L268.822 253.818C268.822 253.818 269.828 255.908 267.041 256.528C264.255 257.148 258.531 255.17 258.531 255.17Z" fill="#DEB46D"/>
<path d="M300.194 194.958C300.194 194.958 300.17 195.462 300.243 196.303C300.638 200.89 303.16 205.026 306.96 207.623L308.289 208.53C308.289 208.53 309.557 206.355 308.786 201.121C308.29 197.745 306.183 195.378 304.75 194.123C303.961 193.433 303.376 193.078 303.376 193.078L300.194 194.958Z" fill="white"/>
<path d="M304.258 194.528L312.366 185.103H312.993L304.936 195.798L304.258 194.528Z" fill="white"/>
<path d="M308.425 206.174L317.486 194.075L317.894 194.664L308.425 208.235V206.174Z" fill="white"/>
<path d="M514.337 73.7949V89.8356H529.764" fill="white"/>
<path d="M514.337 73.7949V89.8356H529.764" stroke="#2F2452" stroke-miterlimit="10"/>
<path d="M248.484 148.779H175.246V175.896H248.484V148.779Z" fill="#8EBBE8"/>
<path d="M287.359 197.067H175.246V235.737H287.359V197.067Z" fill="#A0C4E8"/>
<path d="M643.122 164.184H544.362V227.8H643.122V164.184Z" fill="#A0C4E8"/>
<path d="M571.606 175.896H552.527V198.649H571.606V175.896Z" fill="#BDDDFC"/>
<path d="M627.957 175.896H579.234V180.9H627.957V175.896Z" fill="#BDDDFC"/>
<path d="M277.821 203.159H184.006V207.899H277.821V203.159Z" fill="#BDDDFC"/>
<path d="M277.821 214.381H184.006V219.122H277.821V214.381Z" fill="#BDDDFC"/>
<path d="M859.975 110.387H590.398V116.157H859.975V110.387Z" fill="#A0C4E8"/>
<path d="M383.272 110.387H113.695V116.157H383.272V110.387Z" fill="#A0C4E8"/>
</g>
<rect width="992" height="651" fill="black" fill-opacity="0.05"/>
<defs>
<clipPath id="clip0_83_5">
<rect width="985" height="650" fill="white" transform="translate(2 1)"/>
</clipPath>
</defs>
</svg>
