<svg width="58" height="58" viewBox="0 0 58 58" fill="none" xmlns="http://www.w3.org/2000/svg">
<path d="M28.7994 21.5998C33.4386 21.5998 37.1994 17.839 37.1994 13.1998C37.1994 8.56061 33.4386 4.7998 28.7994 4.7998C24.1602 4.7998 20.3994 8.56061 20.3994 13.1998C20.3994 17.839 24.1602 21.5998 28.7994 21.5998Z" stroke="#EBEBEB" stroke-width="4.8" stroke-linecap="round" stroke-linejoin="round"/>
<path d="M4.7998 49.2C4.7998 38.5956 14.4706 30 26.3998 30" stroke="#EBEBEB" stroke-width="4.8" stroke-linecap="round" stroke-linejoin="round"/>
<path d="M40.8 51.6C46.7647 51.6 51.6 46.7647 51.6 40.8C51.6 34.8353 46.7647 30 40.8 30C34.8353 30 30 34.8353 30 40.8C30 46.7647 34.8353 51.6 40.8 51.6Z" stroke="#EBEBEB" stroke-width="4.8"/>
<path d="M39.5996 37.1997V41.9997H44.3996" stroke="#EBEBEB" stroke-width="4.8" stroke-linecap="round" stroke-linejoin="round"/>
</svg>
