<svg width="58" height="58" viewBox="0 0 58 58" fill="none" xmlns="http://www.w3.org/2000/svg">
<path d="M12.0002 11.9999H16.8002V19.1999H40.8002V11.9999H45.6002V23.9999H50.4002V11.9999C50.4002 9.3599 48.2402 7.1999 45.6002 7.1999H35.5682C34.5602 4.4159 31.9202 2.3999 28.8002 2.3999C25.6802 2.3999 23.0402 4.4159 22.0322 7.1999H12.0002C9.3602 7.1999 7.2002 9.3599 7.2002 11.9999V45.5999C7.2002 48.2399 9.3602 50.3999 12.0002 50.3999H26.4002V45.5999H12.0002V11.9999ZM28.8002 7.1999C30.1202 7.1999 31.2002 8.2799 31.2002 9.5999C31.2002 10.9199 30.1202 11.9999 28.8002 11.9999C27.4802 11.9999 26.4002 10.9199 26.4002 9.5999C26.4002 8.2799 27.4802 7.1999 28.8002 7.1999Z" fill="#EBEBEB"/>
<path d="M50.4004 27.6001L37.2244 40.8001L30.0004 33.6001L26.4004 37.2001L37.2244 48.0001L54.0004 31.2001L50.4004 27.6001Z" fill="#EBEBEB"/>
</svg>
