<svg width="58" height="58" viewBox="0 0 58 58" fill="none" xmlns="http://www.w3.org/2000/svg">
<path d="M52.7998 41.2V34M52.7998 34H4.7998M52.7998 34H28.7998V22H45.5998C47.5094 22 49.3407 22.7585 50.691 24.1088C52.0412 25.459 52.7998 27.2904 52.7998 29.2V34ZM4.7998 19.6V41.2M11.9998 22C11.9998 23.273 12.5055 24.4939 13.4057 25.3941C14.3059 26.2942 15.5268 26.8 16.7998 26.8C18.0728 26.8 19.2937 26.2942 20.1939 25.3941C21.0941 24.4939 21.5998 23.273 21.5998 22C21.5998 20.7269 21.0941 19.506 20.1939 18.6058C19.2937 17.7057 18.0728 17.2 16.7998 17.2C15.5268 17.2 14.3059 17.7057 13.4057 18.6058C12.5055 19.506 11.9998 20.7269 11.9998 22Z" stroke="#EBEBEB" stroke-width="4.8" stroke-linecap="round" stroke-linejoin="round"/>
</svg>
